
<svg xmlns="http://www.w3.org/2000/svg" version="1.1" xmlns:xlink="http://www.w3.org/1999/xlink" preserveAspectRatio="none" x="0px" y="0px" width="450px" height="200px" viewBox="0 0 450 200">
<defs>
<linearGradient id="Gradient_1" gradientUnits="userSpaceOnUse" x1="89.875" y1="51.575" x2="95.92500000000001" y2="68.425" spreadMethod="pad">
<stop  offset="0%" stop-color="#EB9516"/>

<stop  offset="100%" stop-color="#FFAB1A"/>
</linearGradient>

<linearGradient id="Gradient_2" gradientUnits="userSpaceOnUse" x1="46.125" y1="51.575" x2="40.075" y2="68.425" spreadMethod="pad">
<stop  offset="0%" stop-color="#EB9516"/>

<stop  offset="100%" stop-color="#FFAB1A"/>
</linearGradient>

<linearGradient id="Gradient_3" gradientUnits="userSpaceOnUse" x1="151.0375" y1="73.125" x2="145.9625" y2="77.07499999999999" spreadMethod="pad">
<stop  offset="0%" stop-color="#EB9516"/>

<stop  offset="100%" stop-color="#FFAB1A"/>
</linearGradient>

<linearGradient id="Gradient_4" gradientUnits="userSpaceOnUse" x1="179.67499999999998" y1="38.362500000000004" x2="205.225" y2="26.337500000000002" spreadMethod="pad">
<stop  offset="0%" stop-color="#EB9516"/>

<stop  offset="100%" stop-color="#FFAB1A"/>
</linearGradient>

<linearGradient id="Gradient_5" gradientUnits="userSpaceOnUse" x1="139.35000000000002" y1="59.1875" x2="138.75" y2="51.6125" spreadMethod="pad">
<stop  offset="0%" stop-color="#000000" stop-opacity="0"/>

<stop  offset="100%" stop-color="#000000" stop-opacity="0.10196078431372549"/>
</linearGradient>

<linearGradient id="Gradient_6" gradientUnits="userSpaceOnUse" x1="142.675" y1="54.9375" x2="122.825" y2="71.1625" spreadMethod="pad">
<stop  offset="0%" stop-color="#EB9516"/>

<stop  offset="100%" stop-color="#FFAB1A"/>
</linearGradient>

<linearGradient id="Gradient_7" gradientUnits="userSpaceOnUse" x1="385.3625" y1="52.6625" x2="380.2375" y2="59.5375" spreadMethod="pad">
<stop  offset="0%" stop-color="#EB9516"/>

<stop  offset="100%" stop-color="#FFAB1A"/>
</linearGradient>

<linearGradient id="Gradient_8" gradientUnits="userSpaceOnUse" x1="333.82500000000005" y1="56.7125" x2="325.375" y2="58.5875" spreadMethod="pad">
<stop  offset="0%" stop-color="#EB9516"/>

<stop  offset="100%" stop-color="#FFAB1A"/>
</linearGradient>

<linearGradient id="Gradient_9" gradientUnits="userSpaceOnUse" x1="289.40000000000003" y1="49.612500000000004" x2="286.3" y2="57.5875" spreadMethod="pad">
<stop  offset="0%" stop-color="#EB9516"/>

<stop  offset="100%" stop-color="#FFAB1A"/>
</linearGradient>

<linearGradient id="Gradient_10" gradientUnits="userSpaceOnUse" x1="240.125" y1="73.775" x2="243.575" y2="79.125" spreadMethod="pad">
<stop  offset="0%" stop-color="#EB9516"/>

<stop  offset="100%" stop-color="#FFAB1A"/>
</linearGradient>

<linearGradient id="Gradient_11" gradientUnits="userSpaceOnUse" x1="236.7625" y1="55.125" x2="228.2375" y2="54.775000000000006" spreadMethod="pad">
<stop  offset="0%" stop-color="#EB9516"/>

<stop  offset="100%" stop-color="#FFAB1A"/>
</linearGradient>

<linearGradient id="Gradient_12" gradientUnits="userSpaceOnUse" x1="371.675" y1="138.3375" x2="397.22499999999997" y2="126.3625" spreadMethod="pad">
<stop  offset="0%" stop-color="#EB9516"/>

<stop  offset="100%" stop-color="#FFAB1A"/>
</linearGradient>

<linearGradient id="Gradient_13" gradientUnits="userSpaceOnUse" x1="331.35" y1="159.1875" x2="330.75" y2="151.6125" spreadMethod="pad">
<stop  offset="0%" stop-color="#000000" stop-opacity="0"/>

<stop  offset="100%" stop-color="#000000" stop-opacity="0.10196078431372549"/>
</linearGradient>

<linearGradient id="Gradient_14" gradientUnits="userSpaceOnUse" x1="334.675" y1="154.9375" x2="314.825" y2="171.16250000000002" spreadMethod="pad">
<stop  offset="0%" stop-color="#EB9516"/>

<stop  offset="100%" stop-color="#FFAB1A"/>
</linearGradient>

<linearGradient id="Gradient_15" gradientUnits="userSpaceOnUse" x1="62.575" y1="172.8125" x2="57.425" y2="176.6875" spreadMethod="pad">
<stop  offset="0%" stop-color="#EB9516"/>

<stop  offset="100%" stop-color="#FFAB1A"/>
</linearGradient>

<linearGradient id="Gradient_16" gradientUnits="userSpaceOnUse" x1="71.6625" y1="170.45" x2="78.0375" y2="169.55" spreadMethod="pad">
<stop  offset="0%" stop-color="#EB9516"/>

<stop  offset="100%" stop-color="#FFAB1A"/>
</linearGradient>

<linearGradient id="Gradient_17" gradientUnits="userSpaceOnUse" x1="49.7625" y1="117.675" x2="34.1375" y2="110.325" spreadMethod="pad">
<stop  offset="0%" stop-color="#EB9516"/>

<stop  offset="100%" stop-color="#FFAB1A"/>
</linearGradient>

<linearGradient id="Gradient_18" gradientUnits="userSpaceOnUse" x1="85.07499999999999" y1="142.0625" x2="110.625" y2="130.03750000000002" spreadMethod="pad">
<stop  offset="0%" stop-color="#EB9516"/>

<stop  offset="100%" stop-color="#FFAB1A"/>
</linearGradient>

<linearGradient id="Gradient_19" gradientUnits="userSpaceOnUse" x1="168.2125" y1="175.3125" x2="174.5875" y2="176.08749999999998" spreadMethod="pad">
<stop  offset="0%" stop-color="#EB9516"/>

<stop  offset="100%" stop-color="#FFAB1A"/>
</linearGradient>

<linearGradient id="Gradient_20" gradientUnits="userSpaceOnUse" x1="158.575" y1="165.3125" x2="153.425" y2="169.1875" spreadMethod="pad">
<stop  offset="0%" stop-color="#EB9516"/>

<stop  offset="100%" stop-color="#FFAB1A"/>
</linearGradient>

<linearGradient id="Gradient_21" gradientUnits="userSpaceOnUse" x1="145.7625" y1="140.175" x2="130.1375" y2="132.825" spreadMethod="pad">
<stop  offset="0%" stop-color="#EB9516"/>

<stop  offset="100%" stop-color="#FFAB1A"/>
</linearGradient>

<linearGradient id="Gradient_22" gradientUnits="userSpaceOnUse" x1="180.075" y1="126.0625" x2="205.625" y2="114.0375" spreadMethod="pad">
<stop  offset="0%" stop-color="#EB9516"/>

<stop  offset="100%" stop-color="#FFAB1A"/>
</linearGradient>

<linearGradient id="Gradient_23" gradientUnits="userSpaceOnUse" x1="292.85" y1="164.46249999999998" x2="289.75" y2="172.4375" spreadMethod="pad">
<stop  offset="0%" stop-color="#EB9516"/>

<stop  offset="100%" stop-color="#FFAB1A"/>
</linearGradient>

<linearGradient id="Gradient_24" gradientUnits="userSpaceOnUse" x1="244.3" y1="158.2875" x2="227.2" y2="163.61249999999998" spreadMethod="pad">
<stop  offset="0%" stop-color="#EB9516"/>

<stop  offset="100%" stop-color="#FFAB1A"/>
</linearGradient>

<g id="Layer0_0_MEMBER_0_MEMBER_0_FILL">
<path fill="url(#Gradient_1)" stroke="none" d="
M 90.3 50.6
Q 89.65 52.1 90.3 54.25 92.05 60.35 90.3 68.45
L 98.15 68.45
Q 97.95 59.95 94.3 50.4 93.85 48.9 92.25 49.3 91.05 49.45 90.3 50.6 Z"/>
</g>

<g id="Layer0_0_MEMBER_0_MEMBER_1_FILL">
<path fill="#FFAB1A" stroke="none" d="
M 100.8 73.2
Q 101 72.45 101 71.8 101.05 70.1 100.15 68.55 98.8 66.35 96.25 65.75 94.25 65.25 92.4 65.9 91.95 66.1 91.55 66.35 89.3 67.7 88.65 70.2 88 72.7 89.35 74.9 90.7 77.05 93.25 77.7 95.75 78.4 97.95 77 100.15 75.75 100.8 73.2 Z"/>
</g>

<g id="Layer0_0_MEMBER_1_FILL">
<path fill="#E99416" stroke="none" d="
M 54 75.5
L 54 84.25 60.65 84.25 60.65 78.25
Q 60.55 78.15 60.4 78.1 57.6 75.45 54 75.5 Z"/>

<path fill="#FFAB1A" stroke="none" d="
M 60.65 69.4
Q 60.6 68.05 59.7 67.05 58.7 66.1 57.3 66.1 55.95 66.1 55 67 54 68 54.05 69.35
L 54 75.5
Q 57.6 75.45 60.4 78.1 60.55 78.15 60.65 78.25
L 60.65 69.4 Z"/>
</g>

<g id="Layer0_0_MEMBER_2_FILL">
<path fill="#E99416" stroke="none" d="
M 80.55 75.35
Q 75.65 75.55 73.9 82.1
L 73.9 84.4
Q 73.9 84.85 74 85.25
L 80.45 85.25
Q 80.5 84.85 80.5 84.45
L 80.55 75.35 Z"/>

<path fill="#FFAB1A" stroke="none" d="
M 74.85 67.1
Q 73.85 68 73.9 69.4
L 73.9 82.1
Q 75.65 75.55 80.55 75.35
L 80.5 69.4
Q 80.45 68.05 79.6 67.05 78.6 66.1 77.2 66.1 75.8 66.1 74.85 67.1 Z"/>
</g>

<g id="Layer0_0_MEMBER_3_FILL">
<path fill="#E99416" stroke="none" d="
M 51.65 21.95
Q 53.55 20.15 56.2 20.05
L 47.65 20
Q 44.9 20.05 42.9 21.95 40.9 23.95 40.9 26.7
L 40.9 68.5
Q 40.9 71.2 42.9 73.15 44.85 75.1 47.65 75.05
L 56.15 75.1
Q 53.5 75 51.65 73.15 49.65 71.2 49.7 68.5
L 49.7 26.65
Q 49.65 23.95 51.65 21.95 Z"/>

<path fill="#FFAB1A" stroke="none" d="
M 94.05 26.7
Q 94.05 23.9 92.15 22 90.15 20.05 87.5 20
L 56.2 20.05
Q 53.55 20.15 51.65 21.95 49.65 23.95 49.7 26.65
L 49.7 68.5
Q 49.65 71.2 51.65 73.15 53.5 75 56.15 75.1
L 87.45 75.1
Q 90.15 75.05 92.15 73.2 94.1 71.25 94.1 68.45
L 94.05 26.7
M 90.5 30.25
L 90.45 48.7
Q 90.35 52 86.9 51.95
L 58.25 52
Q 54.8 52 54.7 48.65
L 54.7 30.3 54.7 27.15
Q 54.75 23.7 58.25 23.75
L 86.9 23.7
Q 90.5 23.7 90.45 27.2
L 90.5 30.25 Z"/>

<path fill="#A3B74E" stroke="none" d="
M 90.5 30.25
L 90.45 27.2
Q 90.5 23.7 86.9 23.7
L 58.25 23.75
Q 54.75 23.7 54.7 27.15
L 54.7 30.3
Q 54.85 26.95 58.3 26.95
L 86.95 26.95
Q 90.35 26.9 90.5 30.25 Z"/>

<path fill="#ACC254" stroke="none" d="
M 90.45 48.7
L 90.5 30.25
Q 90.35 26.9 86.95 26.95
L 58.3 26.95
Q 54.85 26.95 54.7 30.3
L 54.7 48.65
Q 54.8 52 58.25 52
L 86.9 51.95
Q 90.35 52 90.45 48.7 Z"/>
</g>

<g id="Layer0_0_MEMBER_4_FILL">
<path fill="#374013" stroke="none" d="
M 63.3 34.85
Q 62.1 34.9 61.3 35.65 60.45 36.5 60.45 37.7 60.45 38.85 61.3 39.65 62.1 40.5 63.35 40.45 64.5 40.45 65.3 39.65 66.15 38.85 66.15 37.65 66.15 36.5 65.3 35.65 64.5 34.85 63.3 34.85
M 59.55 32.8
L 60.15 33.5
Q 62.15 32.05 65.15 32.85
L 65.15 30.85
Q 61.2 29.85 59.55 32.8
M 84.95 33.5
L 85.5 32.85
Q 83.85 29.9 79.95 30.85
L 79.95 32.85
Q 82.9 31.95 84.95 33.5
M 84.35 39.65
Q 85.2 38.8 85.2 37.65 85.2 36.5 84.35 35.65 83.5 34.9 82.3 34.9 81.15 34.85 80.4 35.7 79.45 36.5 79.45 37.65 79.45 38.85 80.35 39.65 81.15 40.45 82.35 40.45 83.55 40.5 84.35 39.65 Z"/>
</g>

<g id="Layer0_0_MEMBER_5_FILL">
<path fill="#FFAB1A" stroke="none" d="
M 89.9 86
L 89.9 85.95 89.95 85.9
Q 89.85 82.7 87.55 80.5 85.2 78.1 81.9 78.1 78.6 78.1 76.25 80.45 73.95 82.7 73.9 85.85
L 73.9 85.9
Q 73.9 85.95 73.9 86
L 89.9 86 Z"/>
</g>

<g id="Layer0_0_MEMBER_6_FILL">
<path fill="#FFAB1A" stroke="none" d="
M 62 80.5
Q 59.65 78.1 56.35 78.1 53 78.1 50.65 80.5 48.4 82.75 48.25 85.85
L 48.25 85.9
Q 48.25 85.95 48.25 86
L 64.3 86 64.3 85.9
Q 64.25 82.75 62 80.5 Z"/>
</g>

<g id="Layer0_0_MEMBER_7_FILL">
<path fill="#626262" stroke="none" d="
M 65 56.3
Q 65 55.6 64.3 55.7
L 60.35 56
Q 59.7 56.05 59.7 56.7
L 60.05 60.55 56.15 60.85
Q 55.4 60.9 55.4 61.6
L 55.75 65.55
Q 55.85 66.15 56.55 66.15
L 60.5 65.85 60.75 69.65
Q 60.85 70.35 61.55 70.3
L 65.45 70
Q 66.1 69.95 66.05 69.35
L 65.7 65.45 69.8 65.1
Q 70.35 65.05 70.3 64.4
L 69.95 60.45
Q 69.95 59.75 69.3 59.8
L 65.35 60.15 65 56.3
M 84.2 60.5
Q 84.15 58.5 82.8 57.25 81.25 55.75 79.15 55.7 77.05 55.75 75.5 57.25
L 75.45 57.25
Q 74 58.65 74.05 60.75 74.05 62.8 75.5 64.35 77 65.8 79.15 65.8 79.75 65.8 80.3 65.65 80.35 67.6 81.75 69 83.25 70.45 85.35 70.45 87.4 70.4 89 69 90.45 67.5 90.45 65.45 90.45 63.35 89 61.9 87.45 60.45 85.3 60.4 84.75 60.4 84.2 60.5
M 81.45 58.5
Q 82.35 59.45 82.4 60.75 82.35 62.1 81.4 62.95 80.5 63.95 79.15 63.9 77.8 63.95 76.85 62.95 75.9 62.1 75.95 60.75 75.9 59.4 76.85 58.5 77.75 57.65 79.15 57.65 80.5 57.65 81.45 58.5
M 87.65 63.15
Q 88.6 64.1 88.6 65.4 88.6 66.75 87.6 67.6 86.75 68.55 85.35 68.6 84.05 68.55 83.1 67.6 82.2 66.75 82.2 65.4 82.2 64.15 83.1 63.15 84.05 62.25 85.4 62.25 86.7 62.25 87.65 63.15 Z"/>

<path fill="#F66723" stroke="none" d="
M 88.6 65.4
Q 88.6 64.1 87.65 63.15 86.7 62.25 85.4 62.25 84.05 62.25 83.1 63.15 82.2 64.15 82.2 65.4 82.2 66.75 83.1 67.6 84.05 68.55 85.35 68.6 86.75 68.55 87.6 67.6 88.6 66.75 88.6 65.4
M 82.4 60.75
Q 82.35 59.45 81.45 58.5 80.5 57.65 79.15 57.65 77.75 57.65 76.85 58.5 75.9 59.4 75.95 60.75 75.9 62.1 76.85 62.95 77.8 63.95 79.15 63.9 80.5 63.95 81.4 62.95 82.35 62.1 82.4 60.75 Z"/>
</g>

<g id="Layer0_0_MEMBER_8_FILL">
<path fill="url(#Gradient_2)" stroke="none" d="
M 45.7 54.25
Q 46.35 52.1 45.7 50.6 44.95 49.45 43.75 49.3 42.15 48.9 41.7 50.4 38.05 59.95 37.85 68.45
L 45.7 68.45
Q 43.95 60.35 45.7 54.25 Z"/>
</g>

<g id="Layer0_0_MEMBER_8_MEMBER_0_FILL">
<path fill="#FFAB1A" stroke="none" d="
M 35.2 73.2
Q 35.85 75.75 38.05 77 40.25 78.4 42.75 77.7 45.3 77.05 46.65 74.9 48 72.7 47.35 70.2 46.7 67.7 44.45 66.35 44.05 66.1 43.6 65.9 41.75 65.25 39.75 65.75 37.2 66.35 35.85 68.55 34.95 70.1 35 71.8 35 72.45 35.2 73.2 Z"/>
</g>

<g id="Layer0_1_MEMBER_0_FILL">
<path fill="url(#Gradient_3)" stroke="none" d="
M 147.15 70.85
Q 146.25 70.4 144.55 72.25 142.85 74 141.4 76.95 139.95 79.95 139.7 82.3 139.3 84.75 140.25 85.15
L 140.3 85.25
Q 143.25 86.6 146.3 85.45 149.45 84.35 150.85 81.4 152.3 78.5 151.15 75.4 150.1 72.35 147.25 70.85
L 147.15 70.85 Z"/>
</g>

<g id="Layer0_1_MEMBER_1_FILL">
<path fill="url(#Gradient_4)" stroke="none" d="
M 203.85 26.05
Q 203.85 25.9 203.8 25.75 203.4 27.55 202 28.9 199.95 30.95 197.1 30.95 194.8 30.95 193.05 29.65 192.45 42.9 180.9 41.25
L 182.55 44.3
Q 194.35 49.4 201.8 33.05 203.2 29.9 203.85 26.05 Z"/>

<path fill="#FFAB1A" stroke="none" d="
M 203.8 25.75
Q 204 24.95 204 24.15 204 21.3 202 19.3 199.95 17.35 197.1 17.35 194.25 17.35 192.25 19.3 190.2 21.3 190.2 24.15 190.2 26.95 192.25 28.9 192.65 29.3 193.05 29.65 194.8 30.95 197.1 30.95 199.95 30.95 202 28.9 203.4 27.55 203.8 25.75 Z"/>
</g>

<g id="Layer0_1_MEMBER_2_FILL">
<path fill="#FFAB1A" stroke="none" d="
M 156.8 63.2
Q 156.55 61.9 155.4 61.15 154.25 60.4 152.9 60.7 151.5 60.95 150.8 62.05 150 63.2 150.3 64.55 151.5 70.55 146.65 74.5 145.6 75.35 145.4 76.75 145.35 78.05 146.2 79.15 147.1 80.2 148.45 80.3 149.85 80.45 150.85 79.6 158.9 73.05 156.8 63.2 Z"/>
</g>

<g id="Layer0_1_MEMBER_3_FILL">
<path fill="#E99416" stroke="none" d="
M 142.35 21.55
Q 142.15 18.8 144 16.65 145.7 14.65 148.3 14.4
L 139.85 15.05
Q 137 15.25 135.2 17.4 133.35 19.5 133.6 22.3
L 136.85 64.1
Q 137.1 66.8 139.25 68.6 141.35 70.4 144.2 70.2
L 152.65 69.5
Q 150 69.65 148.05 67.95 145.9 66.15 145.7 63.35
L 142.35 21.55 Z"/>

<path fill="#FFAB1A" stroke="none" d="
M 184.45 13.55
Q 182.3 11.8 179.6 12
L 148.3 14.4
Q 145.7 14.65 144 16.65 142.15 18.8 142.35 21.55
L 145.7 63.35
Q 145.9 66.15 148.05 67.95 150 69.65 152.65 69.5
L 152.75 69.5 183.95 67.1
Q 186.65 66.8 188.5 64.8 190.25 62.75 190.05 59.95
L 186.75 18.15
Q 186.5 15.4 184.45 13.55
M 179.35 15.65
Q 182.9 15.4 183.15 18.85
L 183.35 21.95 184.85 40.4
Q 185 43.7 181.55 43.95
L 152.9 46.2
Q 149.5 46.45 149.15 43.2
L 147.7 24.75 147.45 21.65
Q 147.15 18.15 150.7 17.85
L 179.35 15.65 Z"/>

<path fill="#ACC254" stroke="none" d="
M 183.35 21.95
Q 183 18.6 179.6 18.9
L 150.95 21.2
Q 147.5 21.4 147.7 24.75
L 149.15 43.2
Q 149.5 46.45 152.9 46.2
L 181.55 43.95
Q 185 43.7 184.85 40.4
L 183.35 21.95 Z"/>

<path fill="#A3B74E" stroke="none" d="
M 183.15 18.85
Q 182.9 15.4 179.35 15.65
L 150.7 17.85
Q 147.15 18.15 147.45 21.65
L 147.7 24.75
Q 147.5 21.4 150.95 21.2
L 179.6 18.9
Q 183 18.6 183.35 21.95
L 183.15 18.85 Z"/>
</g>

<g id="Layer0_1_MEMBER_4_MEMBER_0_FILL">
<path fill="#374013" stroke="none" d="
M 160.15 27.65
L 160 25.6
Q 155.95 24.95 154.5 28
L 155.15 28.65
Q 157.1 27 160.15 27.65
M 160.8 30.5
Q 160.8 30.45 160.75 30.4 159.9 29.55 158.65 29.55 157.4 29.55 156.55 30.45 155.6 31.35 155.6 32.55 155.6 32.85 155.65 33.1 155.75 33.5 156.05 33.7 156.45 33.95 156.8 33.9 157.2 33.8 157.45 33.45 157.65 33.1 157.55 32.7 157.55 32.65 157.55 32.55 157.55 32.15 157.9 31.8 158.2 31.5 158.65 31.5 159.05 31.5 159.4 31.8
L 159.4 31.85
Q 159.7 32.15 159.7 32.55 159.7 32.65 159.7 32.7 159.6 33.1 159.85 33.45 160.1 33.8 160.45 33.9 160.85 33.95 161.2 33.7 161.55 33.5 161.6 33.1 161.65 32.85 161.65 32.55 161.65 31.35 160.8 30.5
M 174.45 36.3
Q 175.05 34.15 172.55 34.4
L 165.05 35
Q 162.6 35.1 163.9 37.4 164.4 38.4 165.35 39.25 167.1 40.65 169.45 40.45 171.8 40.3 173.25 38.6 174.15 37.55 174.45 36.3
M 180.2 29.15
Q 180.15 29.1 180.1 29.1 179.25 28.3 178 28.3 176.75 28.3 175.9 29.1 175 30 175 31.25 175 31.55 175 31.8 175.1 32.2 175.45 32.4 175.8 32.6 176.2 32.55 176.55 32.45 176.8 32.15 177.05 31.8 176.95 31.4 176.95 31.35 176.95 31.25 176.95 30.8 177.25 30.5 177.55 30.2 178 30.2 178.45 30.2 178.75 30.5
L 178.8 30.5
Q 179.1 30.85 179.1 31.25 179.1 31.35 179.05 31.4 179 31.8 179.2 32.15 179.45 32.45 179.85 32.55 180.2 32.6 180.55 32.4 180.9 32.2 180.95 31.8 181.05 31.55 181.05 31.25 181.05 30 180.2 29.15
M 180.15 26.8
L 180.7 25.95
Q 178.75 23.2 174.9 24.5
L 175.1 26.5
Q 178 25.35 180.15 26.8 Z"/>
</g>

<g id="Layer0_1_MEMBER_5_FILL">
<path fill="#626262" stroke="none" d="
M 165.65 57.9
Q 166.2 57.8 166.05 57.2
L 165.3 53.2
Q 165.2 52.55 164.6 52.65
L 160.65 53.4 159.9 49.65
Q 159.8 48.95 159.1 49.1
L 155.25 49.8
Q 154.55 49.95 154.65 50.65
L 155.4 54.4 151.5 55.05
Q 150.85 55.2 150.95 55.85
L 151.7 59.85
Q 151.85 60.45 152.5 60.3
L 156.4 59.6 157.1 63.45
Q 157.3 64.1 158 63.95
L 161.85 63.2
Q 162.5 63.1 162.35 62.45
L 161.65 58.6 165.65 57.9
M 173.85 47.6
Q 171.8 47.8 170.5 49.4
L 170.45 49.4
Q 169.15 51 169.4 53.1 169.55 55.2 171.15 56.55 172.9 57.85 174.95 57.65 175.6 57.5 176.15 57.35 176.4 59.3 178 60.5 179.6 61.9 181.7 61.65 183.8 61.4 185.15 59.7 186.5 58.05 186.25 56.05 186 53.95 184.35 52.6 182.7 51.3 180.65 51.55 180 51.6 179.55 51.75 179.25 49.85 177.65 48.65 176 47.4 173.85 47.6
M 183.15 54.1
Q 184.2 54.9 184.35 56.15 184.5 57.55 183.65 58.5 182.85 59.55 181.45 59.7 180.2 59.8 179.15 59 178.1 58.15 177.95 56.9 177.85 55.6 178.65 54.55 179.5 53.5 180.75 53.4 182.15 53.2 183.15 54.1
M 177.65 52.25
Q 177.8 53.55 176.95 54.55 176.1 55.6 174.8 55.7 173.5 55.85 172.35 55 171.4 54.2 171.2 52.95 171.05 51.6 171.9 50.6 172.8 49.55 174.1 49.4 175.45 49.3 176.45 50.1 177.5 50.9 177.65 52.25 Z"/>

<path fill="#F66723" stroke="none" d="
M 176.95 54.55
Q 177.8 53.55 177.65 52.25 177.5 50.9 176.45 50.1 175.45 49.3 174.1 49.4 172.8 49.55 171.9 50.6 171.05 51.6 171.2 52.95 171.4 54.2 172.35 55 173.5 55.85 174.8 55.7 176.1 55.6 176.95 54.55
M 184.35 56.15
Q 184.2 54.9 183.15 54.1 182.15 53.2 180.75 53.4 179.5 53.5 178.65 54.55 177.85 55.6 177.95 56.9 178.1 58.15 179.15 59 180.2 59.8 181.45 59.7 182.85 59.55 183.65 58.5 184.5 57.55 184.35 56.15 Z"/>
</g>

<g id="Layer0_1_MEMBER_6_FILL">
<path fill="url(#Gradient_5)" stroke="none" d="
M 140.3 51.8
Q 137.75 51.85 136.05 54.3
L 136.5 59.45 140.95 60.05 140.3 51.8 Z"/>
</g>

<g id="Layer0_1_MEMBER_7_FILL">
<path fill="#E99416" stroke="none" d="
M 183.25 63.5
Q 182.15 64.5 182.15 65.9 182.15 67.3 183.25 68.25 184.15 69.3 185.6 69.3 187 69.3 188 68.25 189 67.3 189 65.9 189 64.5 188 63.5 187 62.5 185.6 62.5 184.15 62.5 183.25 63.5 Z"/>
</g>

<g id="Layer0_1_MEMBER_8_FILL">
<path fill="#FFAB1A" stroke="none" d="
M 185.65 71.05
Q 187.3 69.35 189.5 67.65 190.9 66.5 192.2 65.6 196.55 63.65 199.3 65.4 199.05 65.1 198.8 64.8 197.9 63.75 196.9 63.05 195.25 61.95 193.3 61.5 189.25 60.5 186 62.65 182.8 64.85 182.25 68.9 181.9 71.7 183 74.25 183.3 75.15 183.85 76 183 73.5 185.65 71.05 Z"/>

<path fill="#E99416" stroke="none" d="
M 189.5 67.65
Q 187.3 69.35 185.65 71.05 183 73.5 183.85 76 183.95 76.2 184.05 76.3 184.1 76.3 184.1 76.4 184.85 77.4 187.7 76.75 190.5 76 193.75 73.75 195.75 72.4 197.15 71 198 70.15 198.65 69.35 200.35 66.9 199.65 65.8 199.6 65.7 199.55 65.7 199.4 65.6 199.3 65.4 196.55 63.65 192.2 65.6 190.9 66.5 189.5 67.65 Z"/>
</g>

<g id="Layer0_1_MEMBER_9_FILL">
<path fill="#FFAB1A" stroke="none" d="
M 124.2 71.35
Q 124.2 72 124.4 72.8 125.05 75.3 127.25 76.6 129.45 77.95 131.95 77.25 134.5 76.65 135.85 74.45 137.2 72.25 136.55 69.75 135.9 67.25 133.65 65.9 133.25 65.65 132.8 65.5 130.95 64.8 128.95 65.3 126.4 65.9 125.05 68.1 124.15 69.65 124.2 71.35 Z"/>

<path fill="url(#Gradient_6)" stroke="none" d="
M 140.95 52.6
L 138.8 50.3
Q 127.25 48.4 124.35 64.45 123.8 67.5 124.15 71.05 124.15 71.2 124.2 71.35 124.15 69.65 125.05 68.1 126.4 65.9 128.95 65.3 130.95 64.8 132.8 65.5 130.4 53.75 140.95 52.6 Z"/>
</g>

<g id="Layer0_2_MEMBER_0_FILL">
<path fill="#FFAB1A" stroke="none" d="
M 388.6 70
Q 390.9 68.75 391.7 66.35 392.45 63.8 391.25 61.65 389.95 59.3 387.5 58.6 387 58.5 386.55 58.35 384.65 58.1 382.85 59.05 380.45 60.3 379.7 62.75 379.25 64.45 379.7 66.05 379.9 66.7 380.25 67.45 381.5 69.75 383.9 70.4 386.4 71.25 388.6 70 Z"/>

<path fill="url(#Gradient_7)" stroke="none" d="
M 383.1 48.45
L 379.15 49.35
Q 374.8 56.1 379.05 64.65 379.6 65.95 379.7 66.05 379.25 64.45 379.7 62.75 380.45 60.3 382.85 59.05 384.65 58.1 386.55 58.35 381 53.65 383.1 48.45 Z"/>
</g>

<g id="Layer0_2_MEMBER_1_FILL">
<path fill="#FFAB1A" stroke="none" d="
M 370.75 65.55
Q 369.8 64.55 368.5 64.5 367.05 64.45 366.1 65.4 360.1 70.65 360.35 77.65 363.5 75.35 367.15 76.2 367.65 72.8 370.5 70.15 371.5 69.3 371.65 67.9 371.65 66.6 370.75 65.55 Z"/>

<path fill="#E99416" stroke="none" d="
M 360.35 77.65
Q 360.4 79.75 361 81.95 361.35 83.3 362.55 84 363.75 84.65 365.05 84.35 366.35 84 366.95 82.85 367.7 81.55 367.35 80.4 366.85 78.15 367.15 76.2 363.5 75.35 360.35 77.65 Z"/>
</g>

<g id="Layer0_2_MEMBER_2_FILL">
<path fill="#E99416" stroke="none" d="
M 352.75 84.35
Q 354.1 84 354.7 82.8 356.05 80.25 356.6 77.75 354.25 75.7 350 76.6 349.7 78.15 348.85 79.75 348.25 80.85 348.55 82.25 349 83.5 350.25 84.2 351.45 84.75 352.75 84.35 Z"/>

<path fill="#FFAB1A" stroke="none" d="
M 349.15 64.65
Q 348 65.4 347.75 66.65 347.55 68 348.3 69.2 350.75 72.8 350 76.6 354.25 75.7 356.6 77.75 357.9 71.4 353.75 65.45 353 64.3 351.65 64.1 350.3 63.85 349.15 64.65 Z"/>
</g>

<g id="Layer0_2_MEMBER_3_FILL">
<path fill="#E99416" stroke="none" d="
M 336.6 20
Q 333.85 20.05 331.85 21.95 329.85 23.95 329.85 26.7
L 329.85 68.45
Q 329.85 71.15 331.85 73.15 333.8 75.05 336.6 75
L 345.1 75.05
Q 342.45 74.95 340.6 73.15 338.6 71.15 338.65 68.45
L 338.65 26.65
Q 338.6 23.95 340.6 21.95 342.5 20.15 345.15 20.05
L 336.6 20 Z"/>

<path fill="#FFAB1A" stroke="none" d="
M 382.9 26.7
Q 382.9 23.9 381 22 379 20.05 376.35 20
L 345.15 20.05
Q 342.5 20.15 340.6 21.95 338.6 23.95 338.65 26.65
L 338.65 68.45
Q 338.6 71.15 340.6 73.15 342.45 74.95 345.1 75.05
L 376.3 75.05
Q 379 75 381 73.2 382.95 71.2 382.95 68.4
L 382.9 26.7
M 379.35 30.25
L 379.3 48.7
Q 379.2 52 375.75 51.95
L 347.2 52
Q 343.75 52 343.65 48.65
L 343.65 30.3 343.65 27.15
Q 343.7 23.7 347.2 23.75
L 375.75 23.7
Q 379.35 23.7 379.3 27.2
L 379.35 30.25 Z"/>

<path fill="#A3B74E" stroke="none" d="
M 375.8 26.95
Q 379.2 26.9 379.35 30.25
L 379.3 27.2
Q 379.35 23.7 375.75 23.7
L 347.2 23.75
Q 343.7 23.7 343.65 27.15
L 343.65 30.3
Q 343.8 26.95 347.25 26.95
L 375.8 26.95 Z"/>

<path fill="#ACC254" stroke="none" d="
M 379.3 48.7
L 379.35 30.25
Q 379.2 26.9 375.8 26.95
L 347.25 26.95
Q 343.8 26.95 343.65 30.3
L 343.65 48.65
Q 343.75 52 347.2 52
L 375.75 51.95
Q 379.2 52 379.3 48.7 Z"/>
</g>

<g id="Layer0_2_MEMBER_4_FILL">
<path fill="#374013" stroke="none" d="
M 348.45 32.75
L 349.05 33.5
Q 351.05 32 354.05 32.8
L 354.05 30.85
Q 350.1 29.85 348.45 32.75
M 354.2 35.6
Q 353.4 34.85 352.2 34.85 351 34.9 350.2 35.6 349.35 36.5 349.35 37.7 349.35 38.85 350.2 39.6 351 40.5 352.25 40.45 353.4 40.45 354.2 39.6 355.05 38.85 355.05 37.65 355.05 36.45 354.2 35.6
M 366.1 44.6
Q 367 43.65 367.45 42.5 368.15 40.45 365.7 40.45
L 358.3 40.4
Q 355.85 40.35 356.95 42.75 357.4 43.75 358.25 44.65 359.85 46.2 362.2 46.2 364.55 46.2 366.1 44.6
M 373.2 35.6
Q 372.35 34.9 371.15 34.9 370 34.85 369.25 35.65 368.3 36.45 368.3 37.65 368.3 38.85 369.2 39.6 370 40.45 371.2 40.45 372.4 40.5 373.2 39.6 374.05 38.8 374.05 37.65 374.05 36.45 373.2 35.6
M 374.35 32.8
Q 372.7 29.9 368.8 30.85
L 368.8 32.85
Q 371.75 31.9 373.8 33.5
L 374.35 32.8 Z"/>
</g>

<g id="Layer0_2_MEMBER_5_FILL">
<path fill="#626262" stroke="none" d="
M 358.85 60.4
Q 358.85 59.7 358.2 59.75
L 354.25 60.1 353.9 56.25
Q 353.9 55.6 353.2 55.7
L 349.25 56
Q 348.6 56.05 348.6 56.65
L 348.95 60.5 345.1 60.8
Q 344.35 60.85 344.35 61.55
L 344.7 65.5
Q 344.8 66.15 345.5 66.15
L 349.4 65.8 349.65 69.65
Q 349.75 70.3 350.45 70.25
L 354.35 70
Q 355 69.95 354.95 69.3
L 354.6 65.4 358.7 65.05
Q 359.25 65 359.2 64.35
L 358.85 60.4
M 364.35 57.2
Q 362.9 58.65 362.95 60.7 362.95 62.8 364.4 64.3 365.85 65.75 368 65.75 368.6 65.75 369.15 65.6 369.2 67.55 370.6 68.95 372.1 70.4 374.2 70.4 376.25 70.35 377.85 68.95 379.3 67.45 379.3 65.4 379.3 63.3 377.85 61.85 376.3 60.4 374.15 60.35 373.6 60.35 373.05 60.45 373 58.5 371.65 57.2 370.1 55.75 368 55.7 365.9 55.75 364.4 57.2
L 364.35 57.2
M 365.7 58.5
Q 366.6 57.6 368 57.6 369.35 57.6 370.3 58.5 371.2 59.45 371.25 60.7 371.2 62.05 370.25 62.95 369.35 63.9 368 63.85 366.65 63.9 365.7 62.95 364.8 62.05 364.85 60.7 364.8 59.4 365.7 58.5
M 371.05 65.35
Q 371.05 64.1 371.95 63.15 372.9 62.25 374.25 62.25 375.55 62.25 376.5 63.15 377.45 64.05 377.45 65.35 377.45 66.7 376.45 67.55 375.6 68.5 374.2 68.55 372.9 68.5 371.95 67.55 371.05 66.7 371.05 65.35 Z"/>

<path fill="#F66723" stroke="none" d="
M 371.95 63.15
Q 371.05 64.1 371.05 65.35 371.05 66.7 371.95 67.55 372.9 68.5 374.2 68.55 375.6 68.5 376.45 67.55 377.45 66.7 377.45 65.35 377.45 64.05 376.5 63.15 375.55 62.25 374.25 62.25 372.9 62.25 371.95 63.15
M 368 57.6
Q 366.6 57.6 365.7 58.5 364.8 59.4 364.85 60.7 364.8 62.05 365.7 62.95 366.65 63.9 368 63.85 369.35 63.9 370.25 62.95 371.2 62.05 371.25 60.7 371.2 59.45 370.3 58.5 369.35 57.6 368 57.6 Z"/>
</g>

<g id="Layer0_2_MEMBER_6_FILL">
<path fill="#FFAB1A" stroke="none" d="
M 343.9 85.9
Q 343.9 85.95 343.9 86
L 359.85 86 359.85 85.95 359.9 85.9
Q 359.8 82.7 357.5 80.5 355.15 78.1 351.85 78.1 348.55 78.1 346.25 80.45 343.95 82.7 343.9 85.85
L 343.9 85.9 Z"/>
</g>

<g id="Layer0_2_MEMBER_7_FILL">
<path fill="#FFAB1A" stroke="none" d="
M 358.2 80.45
Q 355.9 82.7 355.85 85.85
L 355.85 85.9
Q 355.85 85.95 355.85 86
L 371.8 86 371.8 85.95 371.85 85.9
Q 371.75 82.7 369.45 80.5 367.1 78.1 363.85 78.1 360.55 78.1 358.2 80.45 Z"/>
</g>

<g id="Layer0_2_MEMBER_8_FILL">
<path fill="url(#Gradient_8)" stroke="none" d="
M 327.7 59.9
Q 329.7 60.3 331 61.8 329.85 54.55 335 52
L 331.3 50.15
Q 323.7 52.45 321.15 61.7 320.65 63.05 320.65 63.15 321.35 61.7 322.9 60.6 325.1 59.35 327.7 59.9 Z"/>

<path fill="#FFAB1A" stroke="none" d="
M 332.35 67.25
Q 332.9 64.75 331.55 62.55 331.3 62.15 331 61.8 329.7 60.3 327.7 59.9 325.1 59.35 322.9 60.6 321.35 61.7 320.65 63.15 320.35 63.75 320.2 64.5 319.6 67.05 321 69.2 322.3 71.4 324.85 71.85 327.4 72.45 329.6 71.1 331.8 69.7 332.35 67.25 Z"/>
</g>

<g id="Layer0_3_MEMBER_0_FILL">
<path fill="url(#Gradient_9)" stroke="none" d="
M 288.65 56.45
Q 290.15 55.1 292.1 54.8 285.5 51.7 286.15 46.1
L 282.65 48.05
Q 280.25 55.65 286.5 62.85 287.4 63.9 287.5 64 286.65 62.6 286.6 60.8 286.7 58.3 288.65 56.45 Z"/>

<path fill="#FFAB1A" stroke="none" d="
M 299 61.2
Q 299.1 58.6 297.35 56.8 295.5 54.85 293 54.8 292.5 54.8 292.1 54.8 290.15 55.1 288.65 56.45 286.7 58.3 286.6 60.8 286.65 62.6 287.5 64 287.85 64.6 288.35 65.25 290.1 67.1 292.65 67.15 295.2 67.3 297 65.55 298.85 63.75 299 61.2 Z"/>
</g>

<g id="Layer0_3_MEMBER_1_FILL">
<path fill="url(#Gradient_10)" stroke="none" d="
M 243 83.6
Q 245.8 85.3 248.15 85.8 250.55 86.4 251.05 85.5
L 251.15 85.5
Q 252.8 82.65 251.9 79.55 251.1 76.4 248.3 74.75 245.55 73.05 242.4 73.9 239.25 74.65 237.5 77.25
L 237.5 77.35
Q 236.95 78.2 238.6 80.05 240.25 81.9 243 83.6 Z"/>
</g>

<g id="Layer0_3_MEMBER_2_FILL">
<path fill="#FFAB1A" stroke="none" d="
M 247.75 63.55
Q 246.4 63.75 245.7 64.9 244.9 66.05 245.2 67.35 246.4 73.4 241.6 77.35 240.6 78.15 240.4 79.55 240.35 80.9 241.15 81.95 242.05 83 243.4 83.1 244.75 83.25 245.75 82.4 253.65 75.9 251.6 66.05 251.35 64.7 250.2 63.95 249.1 63.25 247.75 63.55 Z"/>
</g>

<g id="Layer0_3_MEMBER_3_FILL">
<path fill="#E99416" stroke="none" d="
M 244.9 20
Q 246.8 18.15 249.4 18.05
L 241 18
Q 238.25 18.05 236.3 20 234.35 21.95 234.35 24.7
L 234.35 66.5
Q 234.35 69.2 236.3 71.15 238.2 73.1 241 73.05
L 249.35 73.1
Q 246.75 73 244.9 71.15 242.95 69.2 243 66.5
L 243 24.65
Q 242.95 21.95 244.9 20 Z"/>

<path fill="#FFAB1A" stroke="none" d="
M 286.6 24.7
Q 286.6 21.9 284.75 20.05 282.8 18.05 280.15 18
L 249.4 18.05
Q 246.8 18.15 244.9 20 242.95 21.95 243 24.65
L 243 66.5
Q 242.95 69.2 244.9 71.15 246.75 73 249.35 73.1
L 280.15 73.1
Q 282.8 73.05 284.75 71.2 286.65 69.25 286.65 66.45
L 286.6 24.7
M 247.9 46.65
L 247.9 28.3 247.9 25.15
Q 247.95 21.7 251.4 21.75
L 279.6 21.7
Q 283.15 21.7 283.1 25.2
L 283.15 28.25 283.1 46.7
Q 283 50 279.6 49.95
L 251.4 50
Q 248 50 247.9 46.65 Z"/>

<path fill="#A3B74E" stroke="none" d="
M 247.9 25.15
L 247.9 28.3
Q 248.05 24.95 251.45 24.95
L 279.65 24.95
Q 283 24.9 283.15 28.25
L 283.1 25.2
Q 283.15 21.7 279.6 21.7
L 251.4 21.75
Q 247.95 21.7 247.9 25.15 Z"/>

<path fill="#ACC254" stroke="none" d="
M 247.9 28.3
L 247.9 46.65
Q 248 50 251.4 50
L 279.6 49.95
Q 283 50 283.1 46.7
L 283.15 28.25
Q 283 24.9 279.65 24.95
L 251.45 24.95
Q 248.05 24.95 247.9 28.3 Z"/>
</g>

<g id="Layer0_3_MEMBER_4_FILL">
<path fill="#374013" stroke="none" d="
M 277.65 31.5
L 278.2 30.85
Q 276.6 27.9 272.75 28.85
L 272.75 30.9
Q 275.65 29.95 277.65 31.5
M 277.1 33.65
Q 276.25 32.9 275.05 32.9 273.95 32.85 273.2 33.7 272.25 34.5 272.25 35.65 272.25 36.85 273.15 37.65 273.95 38.45 275.1 38.45 276.3 38.5 277.1 37.65 277.9 36.8 277.9 35.65 277.9 34.5 277.1 33.65
M 262.35 38.45
Q 259.95 38.4 261.05 40.8 261.5 41.8 262.3 42.65 263.9 44.25 266.2 44.25 268.5 44.25 270.1 42.6 271 41.7 271.4 40.55 272.1 38.45 269.7 38.45
L 262.35 38.45
M 253.25 31.5
Q 255.25 30.05 258.2 30.85
L 258.2 28.85
Q 254.3 27.85 252.7 30.8
L 253.25 31.5
M 258.35 33.65
Q 257.55 32.85 256.35 32.85 255.2 32.9 254.4 33.65 253.55 34.55 253.55 35.7 253.55 36.85 254.4 37.65 255.2 38.5 256.4 38.45 257.55 38.45 258.35 37.65 259.15 36.85 259.15 35.65 259.15 34.5 258.35 33.65 Z"/>
</g>

<g id="Layer0_3_MEMBER_5_FILL">
<path fill="#626262" stroke="none" d="
M 262.9 58.45
Q 262.9 57.75 262.25 57.8
L 258.4 58.15 258.05 54.3
Q 258.05 53.6 257.35 53.7
L 253.45 54
Q 252.85 54.05 252.85 54.7
L 253.15 58.55 249.35 58.85
Q 248.6 58.9 248.6 59.6
L 248.95 63.55
Q 249.05 64.15 249.75 64.15
L 253.6 63.8 253.85 67.65
Q 253.95 68.35 254.65 68.3
L 258.5 68
Q 259.15 67.95 259.1 67.3
L 258.75 63.45 262.75 63.1
Q 263.3 63.05 263.25 62.4
L 262.9 58.45
M 281.65 59.9
Q 280.15 58.45 278 58.4 277.45 58.4 276.95 58.5 276.9 56.5 275.55 55.25 274.05 53.75 271.95 53.7 269.9 53.75 268.35 55.25
L 268.3 55.25
Q 266.9 56.65 266.95 58.75 266.95 60.8 268.35 62.35 269.85 63.75 271.95 63.75 272.55 63.75 273.1 63.6 273.15 65.6 274.5 67 276 68.45 278.05 68.45 280.1 68.4 281.65 67 283.1 65.5 283.1 63.45 283.1 61.35 281.65 59.9
M 278.1 60.25
Q 279.4 60.25 280.3 61.15 281.25 62.1 281.25 63.4 281.25 64.75 280.25 65.6 279.45 66.55 278.05 66.6 276.8 66.55 275.85 65.6 274.95 64.75 274.95 63.4 274.95 62.15 275.85 61.15 276.8 60.25 278.1 60.25
M 274.2 56.5
Q 275.1 57.45 275.15 58.75 275.1 60.05 274.15 60.95 273.3 61.95 271.95 61.9 270.65 61.95 269.7 60.95 268.75 60.05 268.8 58.75 268.75 57.4 269.7 56.5 270.6 55.65 271.95 55.65 273.3 55.65 274.2 56.5 Z"/>

<path fill="#F66723" stroke="none" d="
M 275.15 58.75
Q 275.1 57.45 274.2 56.5 273.3 55.65 271.95 55.65 270.6 55.65 269.7 56.5 268.75 57.4 268.8 58.75 268.75 60.05 269.7 60.95 270.65 61.95 271.95 61.9 273.3 61.95 274.15 60.95 275.1 60.05 275.15 58.75
M 280.3 61.15
Q 279.4 60.25 278.1 60.25 276.8 60.25 275.85 61.15 274.95 62.15 274.95 63.4 274.95 64.75 275.85 65.6 276.8 66.55 278.05 66.6 279.45 66.55 280.25 65.6 281.25 64.75 281.25 63.4 281.25 62.1 280.3 61.15 Z"/>
</g>

<g id="Layer0_3_MEMBER_6_MEMBER_0_FILL">
<path fill="#E99416" stroke="none" d="
M 277.15 74.65
Q 277.15 73.25 276.15 72.25 275.15 71.25 273.8 71.25 272.35 71.25 271.45 72.25 270.4 73.25 270.4 74.65 270.4 76.05 271.45 77 272.35 78 273.8 78 275.15 78 276.15 77 277.15 76.05 277.15 74.65 Z"/>
</g>

<g id="Layer0_3_MEMBER_6_MEMBER_1_FILL">
<path fill="#E99416" stroke="none" d="
M 280.25 74.3
Q 279 75.25 277.6 76.4 275.45 78.1 273.85 79.8 271.2 82.25 272.05 84.75 272.15 84.95 272.25 85 272.3 85 272.3 85.1 273.05 86.15 275.85 85.45 278.6 84.75 281.8 82.5 283.75 81.15 285.15 79.75 286 78.9 286.6 78.05 288.3 75.65 287.6 74.55 287.55 74.45 287.5 74.45 287.35 74.3 287.25 74.15 284.55 72.4 280.25 74.3 Z"/>

<path fill="#FFAB1A" stroke="none" d="
M 281.35 70.25
Q 277.35 69.25 274.15 71.4 271.05 73.6 270.5 77.65 270.15 80.45 271.2 83 271.5 83.9 272.05 84.75 271.2 82.25 273.85 79.8 275.45 78.1 277.6 76.4 279 75.25 280.25 74.3 284.55 72.4 287.25 74.15 287 73.85 286.75 73.55 285.9 72.5 284.9 71.8 283.25 70.7 281.35 70.25 Z"/>
</g>

<g id="Layer0_3_MEMBER_7_FILL">
<path fill="url(#Gradient_11)" stroke="none" d="
M 230.05 56.6
Q 231.9 57.55 232.75 59.35 233.55 52.05 239.05 50.85
L 236.05 48.15
Q 228.2 48.45 223.4 56.65 222.6 57.85 222.55 58 223.6 56.7 225.35 56.15 227.8 55.4 230.05 56.6 Z"/>

<path fill="#FFAB1A" stroke="none" d="
M 233.1 60.15
Q 232.95 59.75 232.75 59.35 231.9 57.55 230.05 56.6 227.8 55.4 225.35 56.15 223.6 56.7 222.55 58 222.1 58.5 221.75 59.2 220.55 61.5 221.3 63.85 222 66.4 224.25 67.45 226.55 68.7 229.05 67.95 231.5 67.15 232.6 64.95 233.85 62.65 233.1 60.15 Z"/>
</g>

<g id="Layer0_4_MEMBER_0_FILL">
<path fill="#E99416" stroke="none" d="
M 349 180.3
L 349 174.25
Q 348.9 174.15 348.75 174.1 345.95 171.45 342.35 171.5
L 342.35 180.3 349 180.3 Z"/>

<path fill="#FFAB1A" stroke="none" d="
M 349 165.4
Q 348.95 164.05 348.05 163.05 347.05 162.1 345.65 162.1 344.3 162.1 343.35 163 342.35 164 342.4 165.35
L 342.35 171.5
Q 345.95 171.45 348.75 174.1 348.9 174.15 349 174.25
L 349 165.4 Z"/>
</g>

<g id="Layer0_4_MEMBER_1_FILL">
<path fill="#E99416" stroke="none" d="
M 362.25 180.4
Q 362.25 180.85 362.35 181.25
L 368.8 181.25
Q 368.85 180.85 368.85 180.45
L 368.9 171.35
Q 364 171.55 362.25 178.1
L 362.25 180.4 Z"/>

<path fill="#FFAB1A" stroke="none" d="
M 362.25 165.4
L 362.25 178.1
Q 364 171.55 368.9 171.35
L 368.85 165.4
Q 368.8 164.05 367.95 163.05 366.95 162.1 365.55 162.1 364.15 162.1 363.2 163.1 362.2 164 362.25 165.4 Z"/>
</g>

<g id="Layer0_4_MEMBER_2_FILL">
<path fill="#FFAB1A" stroke="none" d="
M 362.25 181.85
L 362.25 181.9
Q 362.25 181.95 362.25 182
L 378.25 182 378.25 181.95 378.3 181.9
Q 378.2 178.7 375.9 176.5 373.55 174.1 370.25 174.1 366.95 174.1 364.6 176.45 362.3 178.7 362.25 181.85 Z"/>
</g>

<g id="Layer0_4_MEMBER_3_FILL">
<path fill="#FFAB1A" stroke="none" d="
M 336.6 182
L 352.65 182 352.65 181.9
Q 352.6 178.75 350.35 176.55 348 174.1 344.7 174.1 341.35 174.1 339 176.5 336.75 178.75 336.6 181.85
L 336.6 181.9
Q 336.6 181.95 336.6 182 Z"/>
</g>

<g id="Layer0_4_MEMBER_4_FILL">
<path fill="url(#Gradient_12)" stroke="none" d="
M 372.9 141.25
L 374.55 144.3
Q 386.35 149.4 393.8 133.05 395.2 129.9 395.85 126.05 395.85 125.9 395.8 125.75 395.4 127.55 394 128.9 391.95 130.95 389.1 130.95 386.8 130.95 385.05 129.65 384.45 142.9 372.9 141.25 Z"/>

<path fill="#FFAB1A" stroke="none" d="
M 394 119.3
Q 391.95 117.35 389.1 117.35 386.25 117.35 384.25 119.3 382.2 121.35 382.2 124.15 382.2 126.95 384.25 128.9 384.65 129.3 385.05 129.65 386.8 130.95 389.1 130.95 391.95 130.95 394 128.9 395.4 127.55 395.8 125.75 396 125 396 124.15 396 121.35 394 119.3 Z"/>
</g>

<g id="Layer0_4_MEMBER_5_FILL">
<path fill="#E99416" stroke="none" d="
M 340.3 114.4
L 331.85 115.05
Q 329 115.25 327.2 117.4 325.35 119.5 325.6 122.3
L 328.85 164.1
Q 329.1 166.8 331.25 168.6 333.35 170.4 336.2 170.2
L 344.65 169.5
Q 342 169.65 340.05 167.95 337.9 166.15 337.7 163.35
L 334.35 121.55
Q 334.15 118.8 336 116.65 337.7 114.65 340.3 114.4 Z"/>

<path fill="#FFAB1A" stroke="none" d="
M 378.75 118.15
Q 378.5 115.4 376.45 113.55 374.3 111.8 371.6 112
L 340.3 114.4
Q 337.7 114.65 336 116.65 334.15 118.8 334.35 121.55
L 337.7 163.35
Q 337.9 166.15 340.05 167.95 342 169.65 344.65 169.5
L 344.75 169.5 375.95 167.1
Q 378.65 166.8 380.5 164.8 382.25 162.75 382.05 159.95
L 378.75 118.15
M 375.35 121.95
L 376.85 140.4
Q 377 143.7 373.55 143.95
L 344.9 146.2
Q 341.5 146.45 341.15 143.2
L 339.7 124.75 339.45 121.65
Q 339.15 118.15 342.7 117.85
L 371.35 115.65
Q 374.9 115.4 375.15 118.85
L 375.35 121.95 Z"/>

<path fill="#A3B74E" stroke="none" d="
M 375.35 121.95
L 375.15 118.85
Q 374.9 115.4 371.35 115.65
L 342.7 117.85
Q 339.15 118.15 339.45 121.65
L 339.7 124.75
Q 339.5 121.4 342.95 121.2
L 371.6 118.9
Q 375 118.6 375.35 121.95 Z"/>

<path fill="#ACC254" stroke="none" d="
M 376.85 140.4
L 375.35 121.95
Q 375 118.6 371.6 118.9
L 342.95 121.2
Q 339.5 121.4 339.7 124.75
L 341.15 143.2
Q 341.5 146.45 344.9 146.2
L 373.55 143.95
Q 377 143.7 376.85 140.4 Z"/>
</g>

<g id="Layer0_4_MEMBER_6_MEMBER_0_FILL">
<path fill="#374013" stroke="none" d="
M 347.6 132.55
Q 347.6 132.85 347.65 133.1 347.75 133.5 348.05 133.7 348.45 133.95 348.8 133.9 349.2 133.8 349.45 133.45 349.65 133.1 349.55 132.7 349.55 132.65 349.55 132.55 349.55 132.15 349.9 131.8 350.2 131.5 350.65 131.5 351.05 131.5 351.4 131.8
L 351.4 131.85
Q 351.7 132.15 351.7 132.55 351.7 132.65 351.7 132.7 351.6 133.1 351.85 133.45 352.1 133.8 352.45 133.9 352.85 133.95 353.2 133.7 353.55 133.5 353.6 133.1 353.65 132.85 353.65 132.55 353.65 131.35 352.8 130.5 352.8 130.45 352.75 130.4 351.9 129.55 350.65 129.55 349.4 129.55 348.55 130.45 347.6 131.35 347.6 132.55
M 352.15 127.65
L 352 125.6
Q 347.95 124.95 346.5 128
L 347.15 128.7
Q 349.1 127 352.15 127.65
M 365.25 138.6
Q 366.15 137.55 366.45 136.3 367.05 134.15 364.55 134.4
L 357.05 135
Q 354.6 135.1 355.9 137.4 356.4 138.4 357.35 139.25 359.1 140.65 361.45 140.45 363.8 140.3 365.25 138.6
M 372.15 126.8
L 372.7 125.95
Q 370.75 123.2 366.9 124.5
L 367.1 126.5
Q 370 125.35 372.15 126.8
M 372.2 129.15
Q 372.15 129.1 372.1 129.1 371.25 128.3 370 128.3 368.75 128.3 367.9 129.1 367 130 367 131.25 367 131.55 367 131.8 367.1 132.2 367.45 132.45 367.8 132.6 368.2 132.55 368.55 132.45 368.8 132.15 369.05 131.8 368.95 131.4 368.95 131.35 368.95 131.25 368.95 130.8 369.25 130.5 369.55 130.2 370 130.2 370.45 130.2 370.75 130.5
L 370.8 130.5
Q 371.1 130.85 371.1 131.25 371.1 131.35 371.05 131.4 371 131.8 371.2 132.15 371.45 132.45 371.85 132.55 372.2 132.6 372.55 132.45 372.9 132.2 372.95 131.8 373.05 131.55 373.05 131.25 373.05 130 372.2 129.15 Z"/>
</g>

<g id="Layer0_4_MEMBER_7_FILL">
<path fill="#626262" stroke="none" d="
M 357.3 153.2
Q 357.2 152.55 356.6 152.65
L 352.65 153.4 351.9 149.65
Q 351.8 148.95 351.1 149.1
L 347.25 149.8
Q 346.55 149.95 346.65 150.65
L 347.4 154.4 343.5 155.05
Q 342.85 155.2 342.95 155.85
L 343.7 159.85
Q 343.85 160.45 344.5 160.3
L 348.4 159.6 349.1 163.45
Q 349.3 164.1 350 163.95
L 353.85 163.2
Q 354.5 163.1 354.35 162.45
L 353.65 158.6 357.65 157.9
Q 358.2 157.8 358.05 157.2
L 357.3 153.2
M 362.45 149.4
Q 361.15 151 361.4 153.1 361.55 155.2 363.15 156.55 364.9 157.85 366.95 157.65 367.6 157.5 368.15 157.35 368.4 159.3 370 160.5 371.6 161.9 373.7 161.65 375.8 161.4 377.15 159.7 378.5 158.05 378.25 156.05 378 153.95 376.35 152.6 374.7 151.3 372.65 151.55 372 151.6 371.55 151.75 371.25 149.85 369.65 148.65 368 147.4 365.85 147.6 363.8 147.8 362.5 149.4
L 362.45 149.4
M 364.35 155
Q 363.4 154.2 363.2 152.95 363.05 151.6 363.9 150.6 364.8 149.55 366.1 149.4 367.45 149.3 368.45 150.1 369.5 150.9 369.65 152.25 369.8 153.55 368.95 154.5 368.1 155.6 366.8 155.7 365.5 155.85 364.35 155
M 375.15 154.1
Q 376.2 154.9 376.35 156.15 376.5 157.55 375.65 158.5 374.85 159.55 373.45 159.7 372.2 159.8 371.15 159 370.1 158.15 369.95 156.9 369.85 155.6 370.65 154.5 371.5 153.5 372.75 153.4 374.15 153.2 375.15 154.1 Z"/>

<path fill="#F66723" stroke="none" d="
M 376.35 156.15
Q 376.2 154.9 375.15 154.1 374.15 153.2 372.75 153.4 371.5 153.5 370.65 154.5 369.85 155.6 369.95 156.9 370.1 158.15 371.15 159 372.2 159.8 373.45 159.7 374.85 159.55 375.65 158.5 376.5 157.55 376.35 156.15
M 363.2 152.95
Q 363.4 154.2 364.35 155 365.5 155.85 366.8 155.7 368.1 155.6 368.95 154.5 369.8 153.55 369.65 152.25 369.5 150.9 368.45 150.1 367.45 149.3 366.1 149.4 364.8 149.55 363.9 150.6 363.05 151.6 363.2 152.95 Z"/>
</g>

<g id="Layer0_4_MEMBER_8_FILL">
<path fill="url(#Gradient_13)" stroke="none" d="
M 332.3 151.8
Q 329.75 151.85 328.05 154.3
L 328.5 159.45 332.95 160.05 332.3 151.8 Z"/>
</g>

<g id="Layer0_4_MEMBER_9_FILL">
<path fill="#FFAB1A" stroke="none" d="
M 327.85 174.45
Q 329.2 172.25 328.55 169.75 327.9 167.25 325.65 165.9 325.25 165.65 324.8 165.5 322.95 164.8 320.95 165.3 318.4 165.9 317.05 168.1 316.15 169.65 316.2 171.35 316.2 172 316.4 172.8 317.05 175.3 319.25 176.6 321.45 177.95 323.95 177.25 326.5 176.6 327.85 174.45 Z"/>

<path fill="url(#Gradient_14)" stroke="none" d="
M 324.8 165.5
Q 322.4 153.75 332.95 152.6
L 330.8 150.3
Q 319.25 148.4 316.35 164.45 315.8 167.5 316.15 171.05 316.15 171.2 316.2 171.35 316.15 169.65 317.05 168.1 318.4 165.9 320.95 165.3 322.95 164.8 324.8 165.5 Z"/>
</g>

<g id="Layer0_5_MEMBER_0_MEMBER_0_FILL">
<path fill="url(#Gradient_15)" stroke="none" d="
M 60.4 172.05
Q 57.7 170.15 54.5 170.8 51.3 171.4 49.45 174.15 47.55 176.8 48.1 180
L 48.15 180.1
Q 48.3 181.1 50.8 181.35 53.1 181.7 56.35 181.1 59.6 180.45 61.75 179.25 63.95 178.1 63.75 177.15
L 63.8 177.05
Q 63.05 173.9 60.4 172.05 Z"/>
</g>

<g id="Layer0_5_MEMBER_0_MEMBER_1_FILL">
<path fill="#FFAB1A" stroke="none" d="
M 56.1 160.9
Q 56.4 159.55 55.6 158.4 54.9 157.3 53.5 157.05 52.15 156.75 51 157.5 49.85 158.25 49.6 159.55 47.5 169.4 55.55 175.95 56.55 176.8 57.95 176.65 59.3 176.55 60.2 175.5 61.05 174.4 61 173.1 60.8 171.7 59.75 170.85 54.9 166.9 56.1 160.9 Z"/>
</g>

<g id="Layer0_5_MEMBER_1_MEMBER_0_FILL">
<path fill="url(#Gradient_16)" stroke="none" d="
M 72.7 168.45
Q 72.1 171.6 73.8 174.35
L 73.9 174.4
Q 74.45 175.2 76.85 174.45 79.2 173.8 81.9 171.95 84.65 170.1 86.1 168.15 87.65 166.25 87 165.45
L 87 165.3
Q 85.15 162.7 81.9 162.15 78.65 161.55 76 163.4 73.25 165.15 72.7 168.45 Z"/>
</g>

<g id="Layer0_5_MEMBER_2_FILL">
<path fill="url(#Gradient_17)" stroke="none" d="
M 46.75 115.1
Q 48.8 113.15 48.8 110.35 48.8 107.5 46.75 105.5 44.75 103.55 41.9 103.55 39.05 103.55 37 105.5 35 107.5 35 110.35 35 111.15 35.2 111.95 35.15 112.1 35.15 112.25 35.8 116.1 37.2 119.25 44.65 135.6 56.45 130.5
L 58.1 127.45
Q 46.55 129.1 45.95 115.85 46.35 115.5 46.75 115.1 Z"/>
</g>

<g id="Layer0_5_MEMBER_3_FILL">
<path fill="#E99416" stroke="none" d="
M 81.2 112.1
Q 83.8 112.45 85.55 114.4 87.35 116.6 87.1 119.25
L 83.45 160.95
Q 83.25 163.65 81.1 165.4 79.05 167.1 76.45 166.95
L 84.9 167.65
Q 87.7 167.95 89.85 166.2 91.95 164.4 92.2 161.7
L 95.85 120.05
Q 96.05 117.35 94.3 115.2 92.45 113.1 89.7 112.8
L 81.2 112.1 Z"/>

<path fill="#FFAB1A" stroke="none" d="
M 50 109.35
Q 47.35 109.15 45.2 110.95 43.1 112.65 42.9 115.4
L 39.2 157
Q 38.95 159.8 40.75 161.95 42.55 163.95 45.25 164.25
L 76.45 166.95
Q 79.05 167.1 81.1 165.4 83.25 163.65 83.45 160.95
L 87.1 119.25
Q 87.35 116.6 85.55 114.4 83.8 112.45 81.2 112.1
L 50 109.35
M 46.2 135.6
Q 46.45 132.1 49.85 132.4
L 77 134.85
Q 80.3 135.05 80.05 138.5
L 78.2 159.65
Q 77.8 162.95 74.55 162.7
L 47.45 160.25
Q 44.15 160 44.35 156.75
L 46.2 135.6
M 48.55 134.55
Q 48.3 135 48.2 135.8
L 46.35 156.95
Q 46.3 158.15 47.6 158.25
L 74.75 160.7
Q 76.1 160.8 76.25 159.45
L 78.1 138.35
Q 78.2 137.6 77.9 137.15 77.55 136.9 76.9 136.85
L 69.25 136.15 68.65 143.05 56.7 142 57.3 135.1 49.7 134.4
Q 49 134.35 48.55 134.55 Z"/>

<path fill="#F3A318" stroke="none" d="
M 49.85 132.4
Q 46.45 132.1 46.2 135.6
L 44.35 156.75
Q 44.15 160 47.45 160.25
L 74.55 162.7
Q 77.8 162.95 78.2 159.65
L 80.05 138.5
Q 80.3 135.05 77 134.85
L 49.85 132.4
M 48.2 135.8
Q 48.3 135 48.55 134.55 49 134.35 49.7 134.4
L 57.3 135.1 56.7 142 68.65 143.05 69.25 136.15 76.9 136.85
Q 77.55 136.9 77.9 137.15 78.2 137.6 78.1 138.35
L 76.25 159.45
Q 76.1 160.8 74.75 160.7
L 47.6 158.25
Q 46.3 158.15 46.35 156.95
L 48.2 135.8 Z"/>
</g>

<g id="Layer0_5_MEMBER_4_FILL">
<path fill="url(#Gradient_18)" stroke="none" d="
M 86.3 144.95
L 87.95 148
Q 99.75 153.1 107.2 136.75 108.6 133.6 109.25 129.75 109.25 129.6 109.2 129.45 108.8 131.25 107.4 132.6 105.35 134.65 102.5 134.65 100.2 134.65 98.45 133.35 97.85 146.6 86.3 144.95 Z"/>

<path fill="#FFAB1A" stroke="none" d="
M 107.4 123
Q 105.35 121.05 102.5 121.05 99.65 121.05 97.65 123 95.6 125 95.6 127.85 95.6 130.65 97.65 132.6 98.05 133 98.45 133.35 100.2 134.65 102.5 134.65 105.35 134.65 107.4 132.6 108.8 131.25 109.2 129.45 109.4 128.65 109.4 127.85 109.4 125 107.4 123 Z"/>
</g>

<g id="Layer0_6_MEMBER_0_MEMBER_0_FILL">
<path fill="url(#Gradient_19)" stroke="none" d="
M 180.25 169.9
Q 177.3 168.45 174.25 169.55 171.1 170.55 169.7 173.55 168.4 176.45 169.3 179.6
L 169.35 179.65
Q 169.7 180.55 172.15 180.45 174.6 180.45 177.8 179.35 180.9 178.25 182.7 176.8 184.75 175.35 184.4 174.4
L 184.4 174.3
Q 183.25 171.25 180.25 169.9 Z"/>
</g>

<g id="Layer0_6_MEMBER_0_MEMBER_1_FILL">
<path fill="#FFAB1A" stroke="none" d="
M 177.8 157.05
Q 176.4 157.3 175.7 158.4 174.9 159.55 175.2 160.9 176.4 166.9 171.55 170.85 170.5 171.7 170.3 173.1 170.25 174.4 171.1 175.5 172 176.55 173.35 176.65 174.75 176.8 175.75 175.95 183.8 169.4 181.7 159.55 181.45 158.25 180.3 157.5 179.15 156.75 177.8 157.05 Z"/>
</g>

<g id="Layer0_6_MEMBER_1_MEMBER_0_FILL">
<path fill="url(#Gradient_20)" stroke="none" d="
M 157.75 171.75
Q 159.95 170.6 159.75 169.65
L 159.8 169.55
Q 159.05 166.4 156.4 164.55 153.7 162.65 150.5 163.3 147.3 163.9 145.45 166.65 143.55 169.3 144.1 172.5
L 144.15 172.6
Q 144.3 173.6 146.8 173.85 149.1 174.2 152.35 173.6 155.6 172.95 157.75 171.75 Z"/>
</g>

<g id="Layer0_6_MEMBER_2_FILL">
<path fill="url(#Gradient_21)" stroke="none" d="
M 131.15 134.75
Q 131.8 138.6 133.2 141.75 140.65 158.1 152.45 153
L 154.1 149.95
Q 142.55 151.6 141.95 138.35 142.35 138 142.75 137.6 144.8 135.65 144.8 132.85 144.8 130 142.75 128 140.75 126.05 137.9 126.05 135.05 126.05 133 128 131 130 131 132.85 131 133.65 131.2 134.45 131.15 134.6 131.15 134.75 Z"/>
</g>

<g id="Layer0_6_MEMBER_3_FILL">
<path fill="#FFAB1A" stroke="none" d="
M 179.35 116.1
Q 179.15 113.4 177 111.6 174.9 109.95 172.25 110.1
L 141.1 112.9
Q 138.45 113.2 136.65 115.3 134.9 117.4 135.15 120.15
L 138.9 161.75
Q 139.15 164.55 141.3 166.3 143.45 168 146.15 167.75
L 177.3 164.9
Q 179.95 164.6 181.65 162.6 183.45 160.45 183.15 157.75
L 179.35 116.1
M 172.2 133.2
Q 175.5 132.85 175.85 136.3
L 177.8 157.45
Q 178 160.75 174.75 161.05
L 147.6 163.45
Q 144.35 163.8 143.95 160.6
L 142 139.45
Q 141.65 135.95 145.05 135.6
L 172.2 133.2
M 164.8 135.9
L 165.4 142.8 153.45 143.9 152.85 137 145.25 137.6
Q 144.55 137.7 144.15 137.95 143.95 138.45 144 139.25
L 145.95 160.4
Q 146.1 161.6 147.4 161.45
L 174.55 159.05
Q 175.85 158.95 175.8 157.55
L 173.85 136.45
Q 173.8 135.7 173.45 135.35 173.05 135.15 172.4 135.2
L 164.8 135.9 Z"/>

<path fill="#F3A318" stroke="none" d="
M 175.85 136.3
Q 175.5 132.85 172.2 133.2
L 145.05 135.6
Q 141.65 135.95 142 139.45
L 143.95 160.6
Q 144.35 163.8 147.6 163.45
L 174.75 161.05
Q 178 160.75 177.8 157.45
L 175.85 136.3
M 165.4 142.8
L 164.8 135.9 172.4 135.2
Q 173.05 135.15 173.45 135.35 173.8 135.7 173.85 136.45
L 175.8 157.55
Q 175.85 158.95 174.55 159.05
L 147.4 161.45
Q 146.1 161.6 145.95 160.4
L 144 139.25
Q 143.95 138.45 144.15 137.95 144.55 137.7 145.25 137.6
L 152.85 137 153.45 143.9 165.4 142.8 Z"/>

<path fill="#E99416" stroke="none" d="
M 188.1 115.3
Q 187.85 112.6 185.7 110.8 183.5 109.05 180.8 109.25
L 172.25 110.1
Q 174.9 109.95 177 111.6 179.15 113.4 179.35 116.1
L 183.15 157.75
Q 183.45 160.45 181.65 162.6 179.95 164.6 177.3 164.9
L 185.8 164.1
Q 188.55 163.85 190.35 161.8 192.15 159.65 191.9 156.95
L 188.1 115.3 Z"/>
</g>

<g id="Layer0_6_MEMBER_4_FILL">
<path fill="#FFAB1A" stroke="none" d="
M 204.2 113.45
Q 204.4 112.65 204.4 111.85 204.4 109 202.4 107 200.35 105.05 197.5 105.05 194.65 105.05 192.65 107 190.6 109 190.6 111.85 190.6 114.65 192.65 116.6 193.05 117 193.45 117.35 195.2 118.65 197.5 118.65 200.35 118.65 202.4 116.6 203.8 115.25 204.2 113.45 Z"/>

<path fill="url(#Gradient_22)" stroke="none" d="
M 204.25 113.75
Q 204.25 113.6 204.2 113.45 203.8 115.25 202.4 116.6 200.35 118.65 197.5 118.65 195.2 118.65 193.45 117.35 192.85 130.6 181.3 128.95
L 182.95 132
Q 194.75 137.1 202.2 120.75 203.6 117.6 204.25 113.75 Z"/>
</g>

<g id="Layer0_7_MEMBER_0_FILL">
<path fill="#FFAB1A" stroke="none" d="
M 296.45 169.65
Q 295.95 169.65 295.55 169.65 293.6 169.95 292.1 171.3 290.15 173.15 290.05 175.65 290.1 177.45 290.95 178.85 291.3 179.45 291.8 180.1 293.55 181.95 296.1 182 298.65 182.15 300.45 180.4 302.3 178.6 302.45 176.05 302.55 173.45 300.8 171.65 298.95 169.7 296.45 169.65 Z"/>

<path fill="url(#Gradient_23)" stroke="none" d="
M 289.6 160.95
L 286.1 162.9
Q 283.7 170.5 289.95 177.7 290.85 178.75 290.95 178.85 290.1 177.45 290.05 175.65 290.15 173.15 292.1 171.3 293.6 169.95 295.55 169.65 288.95 166.55 289.6 160.95 Z"/>
</g>

<g id="Layer0_7_MEMBER_1_FILL">
<path fill="#FFAB1A" stroke="none" d="
M 294.4 134.6
Q 294.75 131.8 293.15 129.65 291.45 127.45 288.8 127.05
L 257.8 122.75
Q 255.2 122.5 253.05 124 250.75 125.7 250.45 128.4
L 244.65 169.85
Q 244.25 172.5 245.95 174.7 247.55 176.85 250.15 177.3
L 281.15 181.6
Q 283.85 181.95 286.05 180.35 288.25 178.7 288.65 175.95
L 294.4 134.6
M 290.7 134.6
L 290.35 137.6 287.75 155.9
Q 287.2 159.1 283.8 158.6
L 255.45 154.7
Q 252 154.2 252.35 150.9
L 254.9 132.7 255.3 129.6
Q 255.85 126.2 259.35 126.75
L 287.7 130.65
Q 291.25 131.15 290.7 134.6 Z"/>

<path fill="#ACC254" stroke="none" d="
M 290.35 137.6
Q 290.65 134.25 287.3 133.85
L 258.95 129.9
Q 255.5 129.4 254.9 132.7
L 252.35 150.9
Q 252 154.2 255.45 154.7
L 283.8 158.6
Q 287.2 159.1 287.75 155.9
L 290.35 137.6 Z"/>

<path fill="#A3B74E" stroke="none" d="
M 290.35 137.6
L 290.7 134.6
Q 291.25 131.15 287.7 130.65
L 259.35 126.75
Q 255.85 126.2 255.3 129.6
L 254.9 132.7
Q 255.5 129.4 258.95 129.9
L 287.3 133.85
Q 290.65 134.25 290.35 137.6 Z"/>

<path fill="#E99416" stroke="none" d="
M 235.95 168.65
Q 235.6 171.3 237.3 173.5 238.95 175.75 241.75 176.05
L 250.15 177.3
Q 247.55 176.85 245.95 174.7 244.25 172.5 244.65 169.85
L 250.45 128.4
Q 250.75 125.7 253.05 124 255.2 122.5 257.8 122.75
L 249.35 121.5
Q 246.6 121.2 244.4 122.8 242.1 124.5 241.75 127.25
L 235.95 168.65 Z"/>
</g>

<g id="Layer0_7_MEMBER_2_FILL">
<path fill="#374013" stroke="none" d="
M 280.4 147.05
Q 281.55 147.3 282.5 146.55 283.4 145.85 283.55 144.7 283.7 143.55 283.05 142.6 282.3 141.75 281.1 141.55 279.95 141.35 279.1 142.1 278.05 142.75 277.9 143.9 277.75 145.1 278.5 146 279.2 146.9 280.4 147.05
M 271.25 147.1
Q 270.45 147 269.85 147.5 269.1 147.95 269 148.8 268.9 149.65 269.4 150.25 269.9 150.9 270.75 151 271.55 151.2 272.2 150.65 272.85 150.15 272.95 149.35 273.05 148.55 272.6 147.85 272.05 147.25 271.25 147.1
M 262.3 138.9
Q 261.1 138.75 260.2 139.4 259.2 140.15 259.05 141.35 258.9 142.5 259.65 143.35 260.3 144.3 261.6 144.45 262.7 144.6 263.6 143.9 264.55 143.3 264.7 142.1 264.85 140.95 264.15 139.95 263.45 139.05 262.3 138.9
M 258.85 136.35
L 259.35 137.15
Q 261.55 136 264.4 137.2
L 264.65 135.2
Q 260.9 133.65 258.85 136.35
M 283.95 140.6
L 284.55 140
Q 283.35 136.8 279.3 137.25
L 279.05 139.25
Q 282.1 138.75 283.95 140.6 Z"/>
</g>

<g id="Layer0_7_MEMBER_3_FILL">
<path fill="#FFAB1A" stroke="none" d="
M 240.25 181.9
Q 240.25 181.95 240.25 182
L 256.3 182 256.3 181.9
Q 256.25 178.75 254 176.5 251.65 174.1 248.35 174.1 245 174.1 242.65 176.5 240.4 178.75 240.25 181.85
L 240.25 181.9 Z"/>
</g>

<g id="Layer0_7_MEMBER_4_FILL">
<path fill="#626262" stroke="none" d="
M 271.7 162.25
Q 270.1 163.45 269.85 165.5 269.6 167.55 270.75 169.3 272.05 170.95 274.2 171.25 274.8 171.3 275.35 171.25 275.1 173.2 276.35 174.8 277.65 176.45 279.7 176.75 281.75 176.95 283.55 175.8 285.15 174.5 285.4 172.5 285.7 170.4 284.5 168.75 283.15 167.05 281 166.75 280.5 166.65 279.95 166.65 280.2 164.7 279 163.3 277.65 161.55 275.6 161.25 273.5 161 271.75 162.25
L 271.7 162.25
M 272.3 168.1
Q 271.5 167.15 271.7 165.8 271.85 164.5 272.95 163.7 273.95 163 275.35 163.2 276.65 163.35 277.5 164.35 278.25 165.4 278.1 166.65 277.9 168 276.8 168.75 275.8 169.6 274.5 169.4 273.15 169.25 272.3 168.1
M 278.5 169.15
Q 279.55 168.4 280.85 168.6 282.15 168.75 283 169.8 283.8 170.9 283.65 172.2 283.45 173.5 282.3 174.2 281.35 175.05 279.95 174.9 278.7 174.65 277.85 173.55 277.1 172.6 277.3 171.3 277.45 170.05 278.5 169.15
M 265 169.3
Q 265.6 169.3 265.6 168.65
L 265.8 164.65
Q 265.9 164 265.3 163.95
L 261.3 163.75 261.5 159.85
Q 261.6 159.15 260.85 159.15
L 256.95 158.95
Q 256.25 158.9 256.2 159.55
L 256 163.4 252.1 163.15
Q 251.35 163.1 251.25 163.8
L 251.05 167.75
Q 251.05 168.35 251.75 168.45
L 255.7 168.7 255.45 172.55
Q 255.45 173.25 256.15 173.3
L 260.05 173.55
Q 260.7 173.55 260.75 172.95
L 260.9 169.05 265 169.3 Z"/>

<path fill="#F66723" stroke="none" d="
M 280.85 168.6
Q 279.55 168.4 278.5 169.15 277.45 170.05 277.3 171.3 277.1 172.6 277.85 173.55 278.7 174.65 279.95 174.9 281.35 175.05 282.3 174.2 283.45 173.5 283.65 172.2 283.8 170.9 283 169.8 282.15 168.75 280.85 168.6
M 271.7 165.8
Q 271.5 167.15 272.3 168.1 273.15 169.25 274.5 169.4 275.8 169.6 276.8 168.75 277.9 168 278.1 166.65 278.25 165.4 277.5 164.35 276.65 163.35 275.35 163.2 273.95 163 272.95 163.7 271.85 164.5 271.7 165.8 Z"/>
</g>

<g id="Layer0_7_MEMBER_5_FILL">
<path fill="url(#Gradient_24)" stroke="none" d="
M 242.6 154
Q 232.8 156.85 225.85 161.8
L 230.6 168.05
Q 236 161.8 241.95 159.5 244.05 158.75 244.85 157.3 245.3 156 244.7 155 244.05 153.5 242.6 154 Z"/>
</g>

<g id="Layer0_7_MEMBER_5_MEMBER_0_FILL">
<path fill="#FFAB1A" stroke="none" d="
M 229.4 161.05
Q 227.4 159.35 224.85 159.65 223.05 159.85 221.75 160.9 221.2 161.3 220.7 161.95 219.1 163.95 219.45 166.45 219.6 169.05 221.7 170.65 223.75 172.3 226.25 172.05 228.8 171.85 230.45 169.75 232.05 167.75 231.8 165.15 231.75 164.7 231.6 164.25 231 162.35 229.4 161.05 Z"/>
</g>

<g id="Layer0_7_MEMBER_6_FILL">
<path fill="#FFAB1A" stroke="none" d="
M 275.75 176.45
Q 273.45 178.7 273.4 181.85
L 273.4 181.9
Q 273.4 181.95 273.4 182
L 289.4 182 289.4 181.95 289.45 181.9
Q 289.35 178.7 287.05 176.5 284.7 174.1 281.4 174.1 278.1 174.1 275.75 176.45 Z"/>
</g>

<path id="Layer0_0_MEMBER_4_MEMBER_0_1_STROKES" stroke="#374013" stroke-width="2" stroke-linejoin="round" stroke-linecap="round" fill="none" d="
M 76.9 42.7
Q 76.6 43.05 76.25 43.4 74.95 44.7 73.05 44.7 71.15 44.7 69.8 43.4 69.45 43.05 69.25 42.7"/>
</defs>

<g transform="matrix( 1, 0, 0, 1, 0,0) ">
<use xlink:href="#Layer0_0_MEMBER_0_MEMBER_0_FILL"/>
</g>

<g transform="matrix( 1, 0, 0, 1, 0,0) ">
<use xlink:href="#Layer0_0_MEMBER_0_MEMBER_1_FILL"/>
</g>

<g transform="matrix( 1, 0, 0, 1, 0,0) ">
<use xlink:href="#Layer0_0_MEMBER_1_FILL"/>
</g>

<g transform="matrix( 1, 0, 0, 1, 0,0) ">
<use xlink:href="#Layer0_0_MEMBER_2_FILL"/>
</g>

<g transform="matrix( 1, 0, 0, 1, 0,0) ">
<use xlink:href="#Layer0_0_MEMBER_3_FILL"/>
</g>

<g transform="matrix( 1, 0, 0, 1, 0,0) ">
<use xlink:href="#Layer0_0_MEMBER_4_FILL"/>
</g>

<g transform="matrix( 1, 0, 0, 1, 0,0) ">
<use xlink:href="#Layer0_0_MEMBER_4_MEMBER_0_1_STROKES"/>
</g>

<g transform="matrix( 1, 0, 0, 1, 0,0) ">
<use xlink:href="#Layer0_0_MEMBER_5_FILL"/>
</g>

<g transform="matrix( 1, 0, 0, 1, 0,0) ">
<use xlink:href="#Layer0_0_MEMBER_6_FILL"/>
</g>

<g transform="matrix( 1, 0, 0, 1, 0,0) ">
<use xlink:href="#Layer0_0_MEMBER_7_FILL"/>
</g>

<g transform="matrix( 1, 0, 0, 1, 0,0) ">
<use xlink:href="#Layer0_0_MEMBER_8_FILL"/>
</g>

<g transform="matrix( 1, 0, 0, 1, 0,0) ">
<use xlink:href="#Layer0_0_MEMBER_8_MEMBER_0_FILL"/>
</g>

<g transform="matrix( 1, 0, 0, 1, 0,0) ">
<use xlink:href="#Layer0_1_MEMBER_0_FILL"/>
</g>

<g transform="matrix( 1, 0, 0, 1, 0,0) ">
<use xlink:href="#Layer0_1_MEMBER_1_FILL"/>
</g>

<g transform="matrix( 1, 0, 0, 1, 0,0) ">
<use xlink:href="#Layer0_1_MEMBER_2_FILL"/>
</g>

<g transform="matrix( 1, 0, 0, 1, 0,0) ">
<use xlink:href="#Layer0_1_MEMBER_3_FILL"/>
</g>

<g transform="matrix( 1, 0, 0, 1, 0,0) ">
<use xlink:href="#Layer0_1_MEMBER_4_MEMBER_0_FILL"/>
</g>

<g transform="matrix( 1, 0, 0, 1, 0,0) ">
<use xlink:href="#Layer0_1_MEMBER_5_FILL"/>
</g>

<g transform="matrix( 1, 0, 0, 1, 0,0) ">
<use xlink:href="#Layer0_1_MEMBER_6_FILL"/>
</g>

<g transform="matrix( 1, 0, 0, 1, 0,0) ">
<use xlink:href="#Layer0_1_MEMBER_7_FILL"/>
</g>

<g transform="matrix( 1, 0, 0, 1, 0,0) ">
<use xlink:href="#Layer0_1_MEMBER_8_FILL"/>
</g>

<g transform="matrix( 1, 0, 0, 1, 0,0) ">
<use xlink:href="#Layer0_1_MEMBER_9_FILL"/>
</g>

<g transform="matrix( 1, 0, 0, 1, 0,0) ">
<use xlink:href="#Layer0_2_MEMBER_0_FILL"/>
</g>

<g transform="matrix( 1, 0, 0, 1, 0,0) ">
<use xlink:href="#Layer0_2_MEMBER_1_FILL"/>
</g>

<g transform="matrix( 1, 0, 0, 1, 0,0) ">
<use xlink:href="#Layer0_2_MEMBER_2_FILL"/>
</g>

<g transform="matrix( 1, 0, 0, 1, 0,0) ">
<use xlink:href="#Layer0_2_MEMBER_3_FILL"/>
</g>

<g transform="matrix( 1, 0, 0, 1, 0,0) ">
<use xlink:href="#Layer0_2_MEMBER_4_FILL"/>
</g>

<g transform="matrix( 1, 0, 0, 1, 0,0) ">
<use xlink:href="#Layer0_2_MEMBER_5_FILL"/>
</g>

<g transform="matrix( 1, 0, 0, 1, 0,0) ">
<use xlink:href="#Layer0_2_MEMBER_6_FILL"/>
</g>

<g transform="matrix( 1, 0, 0, 1, 0,0) ">
<use xlink:href="#Layer0_2_MEMBER_7_FILL"/>
</g>

<g transform="matrix( 1, 0, 0, 1, 0,0) ">
<use xlink:href="#Layer0_2_MEMBER_8_FILL"/>
</g>

<g transform="matrix( 1, 0, 0, 1, 0,0) ">
<use xlink:href="#Layer0_3_MEMBER_0_FILL"/>
</g>

<g transform="matrix( 1, 0, 0, 1, 0,0) ">
<use xlink:href="#Layer0_3_MEMBER_1_FILL"/>
</g>

<g transform="matrix( 1, 0, 0, 1, 0,0) ">
<use xlink:href="#Layer0_3_MEMBER_2_FILL"/>
</g>

<g transform="matrix( 1, 0, 0, 1, 0,0) ">
<use xlink:href="#Layer0_3_MEMBER_3_FILL"/>
</g>

<g transform="matrix( 1, 0, 0, 1, 0,0) ">
<use xlink:href="#Layer0_3_MEMBER_4_FILL"/>
</g>

<g transform="matrix( 1, 0, 0, 1, 0,0) ">
<use xlink:href="#Layer0_3_MEMBER_5_FILL"/>
</g>

<g transform="matrix( 1, 0, 0, 1, 0,0) ">
<use xlink:href="#Layer0_3_MEMBER_6_MEMBER_0_FILL"/>
</g>

<g transform="matrix( 1, 0, 0, 1, 0,0) ">
<use xlink:href="#Layer0_3_MEMBER_6_MEMBER_1_FILL"/>
</g>

<g transform="matrix( 1, 0, 0, 1, 0,0) ">
<use xlink:href="#Layer0_3_MEMBER_7_FILL"/>
</g>

<g transform="matrix( 1, 0, 0, 1, 0,0) ">
<use xlink:href="#Layer0_4_MEMBER_0_FILL"/>
</g>

<g transform="matrix( 1, 0, 0, 1, 0,0) ">
<use xlink:href="#Layer0_4_MEMBER_1_FILL"/>
</g>

<g transform="matrix( 1, 0, 0, 1, 0,0) ">
<use xlink:href="#Layer0_4_MEMBER_2_FILL"/>
</g>

<g transform="matrix( 1, 0, 0, 1, 0,0) ">
<use xlink:href="#Layer0_4_MEMBER_3_FILL"/>
</g>

<g transform="matrix( 1, 0, 0, 1, 0,0) ">
<use xlink:href="#Layer0_4_MEMBER_4_FILL"/>
</g>

<g transform="matrix( 1, 0, 0, 1, 0,0) ">
<use xlink:href="#Layer0_4_MEMBER_5_FILL"/>
</g>

<g transform="matrix( 1, 0, 0, 1, 0,0) ">
<use xlink:href="#Layer0_4_MEMBER_6_MEMBER_0_FILL"/>
</g>

<g transform="matrix( 1, 0, 0, 1, 0,0) ">
<use xlink:href="#Layer0_4_MEMBER_7_FILL"/>
</g>

<g transform="matrix( 1, 0, 0, 1, 0,0) ">
<use xlink:href="#Layer0_4_MEMBER_8_FILL"/>
</g>

<g transform="matrix( 1, 0, 0, 1, 0,0) ">
<use xlink:href="#Layer0_4_MEMBER_9_FILL"/>
</g>

<g transform="matrix( 1, 0, 0, 1, 0,0) ">
<use xlink:href="#Layer0_5_MEMBER_0_MEMBER_0_FILL"/>
</g>

<g transform="matrix( 1, 0, 0, 1, 0,0) ">
<use xlink:href="#Layer0_5_MEMBER_0_MEMBER_1_FILL"/>
</g>

<g transform="matrix( 1, 0, 0, 1, 0,0) ">
<use xlink:href="#Layer0_5_MEMBER_1_MEMBER_0_FILL"/>
</g>

<g transform="matrix( 1, 0, 0, 1, 0,0) ">
<use xlink:href="#Layer0_5_MEMBER_2_FILL"/>
</g>

<g transform="matrix( 1, 0, 0, 1, 0,0) ">
<use xlink:href="#Layer0_5_MEMBER_3_FILL"/>
</g>

<g transform="matrix( 1, 0, 0, 1, 0,0) ">
<use xlink:href="#Layer0_5_MEMBER_4_FILL"/>
</g>

<g transform="matrix( 1, 0, 0, 1, 0,0) ">
<use xlink:href="#Layer0_6_MEMBER_0_MEMBER_0_FILL"/>
</g>

<g transform="matrix( 1, 0, 0, 1, 0,0) ">
<use xlink:href="#Layer0_6_MEMBER_0_MEMBER_1_FILL"/>
</g>

<g transform="matrix( 1, 0, 0, 1, 0,0) ">
<use xlink:href="#Layer0_6_MEMBER_1_MEMBER_0_FILL"/>
</g>

<g transform="matrix( 1, 0, 0, 1, 0,0) ">
<use xlink:href="#Layer0_6_MEMBER_2_FILL"/>
</g>

<g transform="matrix( 1, 0, 0, 1, 0,0) ">
<use xlink:href="#Layer0_6_MEMBER_3_FILL"/>
</g>

<g transform="matrix( 1, 0, 0, 1, 0,0) ">
<use xlink:href="#Layer0_6_MEMBER_4_FILL"/>
</g>

<g transform="matrix( 1, 0, 0, 1, 0,0) ">
<use xlink:href="#Layer0_7_MEMBER_0_FILL"/>
</g>

<g transform="matrix( 1, 0, 0, 1, 0,0) ">
<use xlink:href="#Layer0_7_MEMBER_1_FILL"/>
</g>

<g transform="matrix( 1, 0, 0, 1, 0,0) ">
<use xlink:href="#Layer0_7_MEMBER_2_FILL"/>
</g>

<g transform="matrix( 1, 0, 0, 1, 0,0) ">
<use xlink:href="#Layer0_7_MEMBER_3_FILL"/>
</g>

<g transform="matrix( 1, 0, 0, 1, 0,0) ">
<use xlink:href="#Layer0_7_MEMBER_4_FILL"/>
</g>

<g transform="matrix( 1, 0, 0, 1, 0,0) ">
<use xlink:href="#Layer0_7_MEMBER_5_FILL"/>
</g>

<g transform="matrix( 1, 0, 0, 1, 0,0) ">
<use xlink:href="#Layer0_7_MEMBER_5_MEMBER_0_FILL"/>
</g>

<g transform="matrix( 1, 0, 0, 1, 0,0) ">
<use xlink:href="#Layer0_7_MEMBER_6_FILL"/>
</g>
</svg>
